<svg xmlns="http://www.w3.org/2000/svg" width="163.839" height="163.839" fill-rule="evenodd" clip-rule="evenodd" image-rendering="optimizeQuality" shape-rendering="geometricPrecision" text-rendering="geometricPrecision" viewBox="0 0 1707 1707" id="node"><path fill="#006df0" fill-rule="nonzero" d="M833 396c0-11 9-20 20-20 11 0 20 9 20 20l0 245c0 11-9 20-20 20-11 0-20-9-20-20l0-245zM873 1303c0 11-9 20-20 20-11 0-20-9-20-20l0-245c0-11 9-20 20-20 11 0 20 9 20 20l0 245z"></path><polygon fill="#33ddfe" points="1564 1085 1707 850 1564 614 1421 850"></polygon><path fill="#006df0" fill-rule="nonzero" d="M1436 830c11,0 20,9 20,20 0,11 -9,20 -20,20l-245 0c-11,0 -20,-9 -20,-20 0,-11 9,-20 20,-20l245 0z"></path><polygon fill="#33ddfe" points="143 1085 0 850 143 614 285 850"></polygon><path fill="#006df0" fill-rule="nonzero" d="M271 870c-11 0-20-9-20-20 0-11 9-20 20-20l245 0c11 0 20 9 20 20 0 11-9 20-20 20l-245 0zM1156 519c7-8 20-8 28 0 8 8 8 21 0 28l-139 139c-8 8-21 8-28 0-8-7-8-20 0-28l139-139zm-494 494c7-8 20-8 28 0 8 8 8 21 0 28l-139 139c-8 8-21 8-28 0-8-7-8-20 0-28l139-139zM523 547c-8-7-8-20 0-28 7-8 20-8 28 0l139 139c8 8 8 21 0 28-8 8-21 8-28 0l-139-139zm494 494c-8-7-8-20 0-28 7-8 20-8 28 0l139 139c8 8 8 21 0 28-8 8-21 8-28 0l-139-139z"></path><circle cx="442" cy="438" r="149" fill="#e40048"></circle><circle cx="1265" cy="438" r="149" fill="#e40048"></circle><circle cx="1265" cy="1261" r="149" fill="#e40048"></circle><circle cx="442" cy="1261" r="149" fill="#e40048"></circle><rect width="227" height="132" x="740" y="264" fill="#00da26"></rect><rect width="252" height="146" x="727" y="1296" fill="#00da26"></rect><path fill="#ffcd00" fill-rule="nonzero" d="M853 621c97,0 185,24 250,64 67,41 108,100 108,165 0,65 -41,123 -108,164 -65,40 -153,64 -250,64 -97,0 -185,-24 -249,-64 -67,-41 -108,-99 -108,-164 0,-65 41,-124 108,-165 64,-40 152,-64 249,-64z"></path><path fill="#ff9600" fill-rule="nonzero" d="M685 795c-11 0-20-9-20-20 0-11 9-20 20-20l337 0c11 0 20 9 20 20 0 11-9 20-20 20l-337 0zM685 870c-11 0-20-9-20-20 0-11 9-20 20-20l337 0c11 0 20 9 20 20 0 11-9 20-20 20l-337 0zM685 944c-11 0-20-9-20-20 0-11 9-20 20-20l337 0c11 0 20 9 20 20 0 11-9 20-20 20l-337 0z"></path></svg>