<svg xmlns="http://www.w3.org/2000/svg" xmlns:xlink="http://www.w3.org/1999/xlink" width="25" height="25" id="pc"><defs><linearGradient id="a"><stop offset="0" stop-color="#ff1679"></stop><stop offset="1" stop-color="#ff770b"></stop></linearGradient><linearGradient id="b" x1="992.183" x2="1019.298" y1="516.081" y2="545.959" gradientTransform="translate(-793.076 614.331) scale(.80097)" gradientUnits="userSpaceOnUse" xlink:href="#a"></linearGradient></defs><g transform="translate(0 -1027.362)"><rect width="25" height="25" y="1027.362" fill="url(#b)" rx="5.283" ry="5.283"></rect><path style="text-indent:0;text-align:start;line-height:normal;text-transform:none;block-progression:tb" fill="#fff" d="m9.838 1032.391.644 2.418-1.26 4.508 3.272 3.28 3.29-3.278-.079-.281-1.187-4.262.617-2.385H9.838zm1.3 1.002h2.706l-.258.998h-2.182l-.265-.998zm.22 1.998h2.292l1.014 3.635-1.662 1.656v-1.447a1 1 0 0 0 .518-.875 1 1 0 0 0-1-1 1 1 0 0 0-1 1 1 1 0 0 0 .482.856v1.474l-1.66-1.664 1.015-3.635zm-5.358.01v8.992h6v1.97h-2v1h5v-1h-2v-1.97h6v-8.992h-3v1h2v6.992H7v-6.992h2v-1H6z" color="#000" font-family="sans-serif" font-weight="400" overflow="visible"></path></g></svg>